<svg width="24" height="24" xmlns="http://www.w3.org/2000/svg" stroke-linejoin="round" stroke-linecap="round" stroke="currentColor" fill="none">

  <g transform="translate(-1.5,0)">
    <path d="m12,20l-6.14597,-5.04233a5, 5 0 1 1 6.14, -8.95"></path>
    <path d="m12,6l-2,4l4,3l-2,4l0,3"></path>
  </g>

  <g transform="translate(0.5,0)">
    <g transform="matrix(-1, 0, 0, 1, 28.673872, 0.070494)">
      <path d="M 14.998 20 L 8.852 14.958 C 5.407 12.594 5.813 7.388 9.582 5.586 C 11.331 4.75 13.393 4.911 14.992 6.008"></path>
    </g>
    <g transform="translate(-1,0) matrix(1, 0, 0, 1, 27.918671, -3.298538)">
      <path d="M -13.239 9.379 L -15.239 13.379 L -11.239 16.379 L -13.239 20.379 L -13.239 23.379"></path>
    </g>
  </g>
</svg>